# xmcd
#
# Track frame offsets: 
#        150
#        13457
#        23445
#        39145
#        56027
#        69255
#        79435
#        92400
#        103822
#        118042
#        129332
#        141607
#        158842
#        172529
#        190690
#        201130
#        215045
#        230820
#        245335
#        256827
#        274077
#        290400
#        305432
#        328977
#
# Disc length: 4649 seconds
#
# Revision: 2
# Processed by: cddbd v1.5.2PL0 Copyright (c) Steve Scherf et al.
# Submitted via: ExactAudioCopy v1.3
#
DISCID=58122718
DTITLE=尾崎紀世彦 - -SPECIAL BoX-尾崎紀世彦の世界 disc 2
DYEAR=2013
DGENRE=JPop
TTITLE0=イエスタデイ
TTITLE1=砂に書いたラブ・レター
TTITLE2=レット・イット・ビー
TTITLE3=最後の恋
TTITLE4=恋はフェニックス
TTITLE5=好きにならずにいられない
TTITLE6=太陽は燃えている
TTITLE7=ラバース・コンチェルト
TTITLE8=太陽のあたる場所
TTITLE9=ハッシャバイ・マウンテン(お山の子守唄)
TTITLE10=ジ・エンド
TTITLE11=スーパースター
TTITLE12=ラブ
TTITLE13=イエス・イッツ・ミー
TTITLE14=愛の誓い
TTITLE15=ラスト・ワルツ
TTITLE16=夜のメロディー
TTITLE17=雨のバラード
TTITLE18=最後のくちづけ
TTITLE19=男と女が別れる時
TTITLE20=サングリア-真昼の夢-
TTITLE21=アンド・アイ・ラブ・ユー・ソー
TTITLE22=明日に架ける橋 (ライブ)
TTITLE23=マイ・ウェイ (ライブ)
EXTD=
EXTT0=
EXTT1=
EXTT2=
EXTT3=
EXTT4=
EXTT5=
EXTT6=
EXTT7=
EXTT8=
EXTT9=
EXTT10=
EXTT11=
EXTT12=
EXTT13=
EXTT14=
EXTT15=
EXTT16=
EXTT17=
EXTT18=
EXTT19=
EXTT20=
EXTT21=
EXTT22=
EXTT23=
PLAYORDER=
